<svg xmlns="http://www.w3.org/2000/svg" width="512.002" height="512" viewBox="0 0 512.002 512">
  <g id="blue-password-icon" transform="translate(0 -0.001)">
    <g id="Group_163167" data-name="Group 163167">
      <g id="Group_163166" data-name="Group 163166">
        <g id="Group_163165" data-name="Group 163165">
          <circle id="Ellipse_9628" data-name="Ellipse 9628" cx="20" cy="20" r="20" transform="translate(318 326.001)"/>
          <path id="Path_85705" data-name="Path 85705" d="M238,472H80a40.045,40.045,0,0,1-40-40V268a40.045,40.045,0,0,1,40-40H368a40.045,40.045,0,0,1,40,40v40a20,20,0,0,0,40,0V268a80.091,80.091,0,0,0-80-80H343.963V117.467C343.963,52.7,290.131,0,223.963,0s-120,52.695-120,117.466V188H80A80.091,80.091,0,0,0,0,268V432a80.091,80.091,0,0,0,80,80H238a20,20,0,1,0,0-40ZM143.963,117.467c0-42.715,35.888-77.466,80-77.466s80,34.751,80,77.466V188h-160V117.467Z"/>
          <path id="Path_85706" data-name="Path 85706" d="M503.643,325.739a20,20,0,0,0-27.9,4.62l-98.581,137.7a11.423,11.423,0,0,1-16.441.855l-63.708-62.171a20,20,0,0,0-27.937,28.627l63.82,62.281c.06.058.119.116.18.173A51.561,51.561,0,0,0,368.55,512q1.693,0,3.393-.113a51.563,51.563,0,0,0,36.666-19.1q.348-.435.673-.887l98.981-138.26A20,20,0,0,0,503.643,325.739Z"/>
          <circle id="Ellipse_9629" data-name="Ellipse 9629" cx="20" cy="20" r="20" transform="translate(242 326.001)"/>
          <circle id="Ellipse_9630" data-name="Ellipse 9630" cx="20" cy="20" r="20" transform="translate(92 326.001)"/>
          <circle id="Ellipse_9631" data-name="Ellipse 9631" cx="20" cy="20" r="20" transform="translate(167 326.001)"/>
        </g>
      </g>
    </g>
  </g>
</svg>
