<?xml version="1.0" encoding="utf-8"?>
<!-- Generator: Adobe Illustrator 25.3.1, SVG Export Plug-In . SVG Version: 6.00 Build 0)  -->
<svg version="1.1" id="Layer_1" xmlns="http://www.w3.org/2000/svg" xmlns:xlink="http://www.w3.org/1999/xlink" x="0px" y="0px"
	 viewBox="0 0 20.1 20.1" style="enable-background:new 0 0 20.1 20.1;" xml:space="preserve">
<style type="text/css">
	.st0{fill:#231F20;}
</style>
<path class="st0" d="M18.8,1.3c-1.7-1.7-4.5-1.7-6.3,0c0,0,0,0,0,0L1,12.8c-0.1,0.1-0.1,0.2-0.2,0.3L0,19.4c0,0.2,0,0.4,0.2,0.5
	c0.1,0.1,0.3,0.2,0.4,0.2c0,0,0.1,0,0.1,0l3.8-0.5c0.3,0,0.5-0.3,0.5-0.7c0-0.3-0.3-0.5-0.7-0.5l0,0l-3,0.4l0.6-4.4l4.6,4.6
	c0.1,0.1,0.3,0.2,0.4,0.2c0.2,0,0.3-0.1,0.4-0.2L18.8,7.6C20.5,5.8,20.5,3,18.8,1.3C18.8,1.3,18.8,1.3,18.8,1.3L18.8,1.3z M12.7,2.7
	l1.9,1.9L4.2,15.1l-1.9-1.9L12.7,2.7z M6.9,17.8L5,16L15.5,5.5l1.9,1.9L6.9,17.8z M18.2,6.5l-4.6-4.6C15,0.8,17,1,18.2,2.4
	C19.2,3.6,19.2,5.3,18.2,6.5z"/>
</svg>
