<?xml version="1.0" encoding="utf-8"?>
<!-- Generator: Adobe Illustrator 25.3.1, SVG Export Plug-In . SVG Version: 6.00 Build 0)  -->
<svg version="1.1" id="Layer_1" xmlns:svgjs="http://svgjs.com/svgjs"
	 xmlns="http://www.w3.org/2000/svg" xmlns:xlink="http://www.w3.org/1999/xlink" x="0px" y="0px" viewBox="0 0 512 512"
	 style="enable-background:new 0 0 512 512;" xml:space="preserve">
<style type="text/css">
	.st0{fill:#231F20;}
</style>
<g>
	<path class="st0" d="M337.9,474.7H174.1c-34-0.5-61.9-27.1-64-61L90.7,118.4c-0.2-4.3,1.3-8.5,4.3-11.7c3-3.3,7.3-5.2,11.7-5.3
		h298.7c8.8,0,16,7.1,16,16c0,0.4,0,0.7,0,1.1l-18.6,295.3C400.6,447.9,372.2,474.6,337.9,474.7L337.9,474.7z M124.6,133.3
		L141,411.7c1.1,17.4,15.6,31,33.1,30.9h163.8c17.4-0.1,31.8-13.6,33.1-30.9l17.3-277.3L124.6,133.3z"/>
	<path class="st0" d="M448,133.3H64c-8.8,0-16-7.2-16-16s7.2-16,16-16h384c8.8,0,16,7.2,16,16S456.8,133.3,448,133.3z"/>
	<path class="st0" d="M320,133.3H192c-8.8-0.1-15.9-7.2-16-16V78.9c0.6-22.7,18.9-41,41.6-41.6h76.8C317.5,37.9,336,56.8,336,80
		v37.3C335.9,126.1,328.8,133.2,320,133.3L320,133.3z M208,101.3h96V80c0-5.3-4.3-9.6-9.6-9.6h-76.8c-5.3,0-9.6,4.3-9.6,9.6
		L208,101.3z"/>
	<path class="st0" d="M320,389.3c-8.8-0.1-15.9-7.2-16-16V202.7c0-8.8,7.2-16,16-16s16,7.2,16,16v170.7
		C335.9,382.1,328.8,389.2,320,389.3z"/>
	<path class="st0" d="M192,389.3c-8.8-0.1-15.9-7.2-16-16V202.7c0-8.8,7.2-16,16-16s16,7.2,16,16v170.7
		C207.9,382.1,200.8,389.2,192,389.3z"/>
	<path class="st0" d="M256,389.3c-8.8-0.1-15.9-7.2-16-16V202.7c0-8.8,7.2-16,16-16s16,7.2,16,16v170.7
		C271.9,382.1,264.8,389.2,256,389.3z"/>
</g>
</svg>
