<?xml version="1.0" encoding="utf-8"?>
<!-- Generator: Adobe Illustrator 25.3.1, SVG Export Plug-In . SVG Version: 6.00 Build 0)  -->
<svg version="1.1" id="Layer_1" xmlns:svgjs="http://svgjs.com/svgjs"
	 xmlns="http://www.w3.org/2000/svg" xmlns:xlink="http://www.w3.org/1999/xlink" x="0px" y="0px" viewBox="0 0 512 512"
	 style="enable-background:new 0 0 512 512;" xml:space="preserve">
<style type="text/css">
	.st0{fill:#231F20;}
</style>
<g>
	<g>
		<path class="st0" d="M392,311.5l-90.3,35.9c0.7-23.8-16-45.3-39.9-49.5l-64.6-11.6c-14.2-32.3-44.7-54.3-80-56.9
			c-23.2-1.7-45.7,5.1-63.9,18.9c-2.6-0.5-0.9-0.2-38.4-0.3c-8.3,0-15,6.7-15,15s6.7,15,15,15h20.7v174H15c-8.3,0-15,6.7-15,15
			s6.7,15,15,15h35.7c8.3,0,15-6.7,15-15v-19H105l165.9,33.7c3.4,0.7,7.1,0.2,10.4-1.6l194.1-110c6.4-3.6,9.2-11.3,6.7-18.2
			C468.8,315.4,428.1,297.2,392,311.5L392,311.5z M271.3,451.2l-161.9-32.9c-2.6-0.5-0.4-0.2-43.8-0.3V277.2
			c13.3-12.8,31-19.3,49.4-17.9c26.2,1.9,48.6,19.6,57,45c1.7,5.2,6.2,9.1,11.6,10l72.9,13.1c9.9,1.8,16.6,11.5,14.9,21.7l0,0.2
			c0,0.1,0,0.2-0.1,0.3c-1.8,10.3-11.3,17-21.1,15.2c0,0,0,0,0,0l0,0c0,0,0,0,0,0c0,0-0.2,0-0.2,0l-81.2-14.5
			c-8.1-1.5-15.9,4-17.4,12.1c-1.5,8.2,4,15.9,12.1,17.4c91,16.3,80.3,14.4,81.4,14.6c20.4,3.6,21.4-1.6,158.1-54.9
			c16.7-6.6,34.6-0.8,44.7,11.8L271.3,451.2z"/>
		<path class="st0" d="M236.8,89c-25.4,0-46,20.6-46,46s20.6,46,46,46s46-20.6,46-46S262.1,89,236.8,89z M236.8,151
			c-8.8,0-16-7.2-16-16s7.2-16,16-16s16,7.2,16,16S245.6,151,236.8,151z"/>
		<path class="st0" d="M467,91H332.7c-17.1-36.9-54.3-61-95.7-61c-58.2,0-105.5,47.3-105.5,105.5S178.8,241,237,241
			c40.8,0,77.8-23.7,95.2-60h29.5v45c0,8.3,6.7,15,15,15h60c8.3,0,15-6.7,15-15v-45H467c24.8,0,45-20.2,45-45S491.8,91,467,91z
			 M467,151h-30.2c-8.3,0-15,6.7-15,15v45h-30v-45c0-8.3-6.7-15-15-15h-54.5c-6.3,0-12,4-14.1,9.9C297.4,190.9,268.8,211,237,211
			c-41.6,0-75.5-33.9-75.5-75.5S195.4,60,237,60c32.2,0,60.9,20.4,71.4,50.9c2.1,6.1,7.8,10.1,14.2,10.1H467c8.3,0,15,6.7,15,15
			S475.3,151,467,151L467,151z"/>
	</g>
</g>
</svg>
