<?xml version="1.0" encoding="utf-8"?>
<!-- Generator: Adobe Illustrator 25.3.1, SVG Export Plug-In . SVG Version: 6.00 Build 0)  -->
<svg version="1.1" id="Layer_1" xmlns:svgjs="http://svgjs.com/svgjs"
	 xmlns="http://www.w3.org/2000/svg" xmlns:xlink="http://www.w3.org/1999/xlink" x="0px" y="0px" viewBox="0 0 512 512"
	 style="enable-background:new 0 0 512 512;" xml:space="preserve">
<style type="text/css">
	.st0{fill:#231F20;}
</style>
<g>
	<g>
		<path class="st0" d="M150.8,329.4c0-8.5-5.9-13.6-16.3-13.6c-4.3,0-7.1,0.4-8.6,0.8v27.3c1.8,0.4,4,0.5,7,0.5
			C144,344.5,150.8,338.9,150.8,329.4z"/>
		<path class="st0" d="M215.3,316.1c-4.7,0-7.7,0.4-9.5,0.8v60.4c1.8,0.4,4.7,0.4,7.3,0.4c18.9,0.1,31.2-10.3,31.2-32.3
			C244.5,326.3,233.2,316.1,215.3,316.1z"/>
		<path class="st0" d="M335,0H129.4c-30,0-54.5,24.5-54.5,54.5V256h-5.3c-12.1,0-22,9.8-22,22v133.2c0,12.1,9.8,22,22,22h5.3v24.4
			c0,30.1,24.5,54.5,54.5,54.5h280.6c30,0,54.5-24.4,54.5-54.5V129L335,0z M105.2,302c6.4-1.1,15.5-1.9,28.2-1.9
			c12.9,0,22.1,2.5,28.2,7.4c5.9,4.7,9.9,12.3,9.9,21.4c0,9-3,16.7-8.5,21.9c-7.1,6.7-17.7,9.7-30,9.7c-2.7,0-5.2-0.1-7.1-0.4v33
			h-20.7V302z M409.9,478.6H129.4c-11.6,0-21.1-9.5-21.1-21.1v-24.4h261.6c12.1,0,22-9.8,22-22V278c0-12.1-9.8-22-22-22H108.3V54.5
			c0-11.6,9.5-21.1,21.1-21.1l193.2-0.2v71.4c0,20.9,16.9,37.8,37.8,37.8l69.9-0.2l0.8,315.3C431,469.2,421.6,478.6,409.9,478.6z
			 M184.8,392.7V302c7.7-1.2,17.7-1.9,28.2-1.9c17.5,0,28.9,3.1,37.8,9.9c9.6,7.1,15.6,18.5,15.6,34.8c0,17.7-6.4,29.9-15.3,37.4
			c-9.7,8.1-24.5,11.9-42.6,11.9C197.7,394.1,190,393.4,184.8,392.7z M334.4,339v17h-33.2v37.1h-21v-92.4h56.5v17.1h-35.5V339H334.4
			z"/>
	</g>
</g>
</svg>
