<?xml version="1.0" encoding="utf-8"?>
<!-- Generator: Adobe Illustrator 25.3.1, SVG Export Plug-In . SVG Version: 6.00 Build 0)  -->
<svg version="1.1" id="Layer_1" xmlns:svgjs="http://svgjs.com/svgjs"
	 xmlns="http://www.w3.org/2000/svg" xmlns:xlink="http://www.w3.org/1999/xlink" x="0px" y="0px" viewBox="0 0 512 512"
	 style="enable-background:new 0 0 512 512;" xml:space="preserve">
<style type="text/css">
	.st0{fill:#231F20;}
</style>
<g>
	<path class="st0" d="M36.2,415c3.7,2,90.8,49,179.8,49c27.3-0.2,54.4-3.6,80.8-10.2c4.3,4.9,9,9.5,14,13.8
		c27.4,23.4,54.7,28.2,55.9,28.3c0.9,0.1,1.8,0.1,2.6,0c1.2-0.2,28.5-5,55.9-28.3c16.3-14,29.2-31.5,37.9-51.1
		c11.3-25,17-54.8,17-88.4c0-2.4-1.1-4.6-2.9-6.1C466.8,313.2,440,286,440,264c0-4.4-3.6-8-8-8h-82.4c-24.4-29.4-55.4-49.4-90-58.5
		c47.2-24.1,66-81.9,42-129.1c-24.1-47.2-81.9-66-129.1-42s-66,81.9-42,129.1c9.2,18.1,24,32.8,42.1,42c-33.2,8.7-63.2,27.4-87,54.8
		C51,291.9,32,347.2,32,408C32,410.9,33.6,413.6,36.2,415z M424.7,272c4.7,26.4,30.4,51.6,39.3,59.6c-0.4,29.6-5.5,55.8-15.3,77.7
		c-7.6,17.4-18.9,33-33.3,45.5c-20.8,18-42,23.8-47.4,25c-5.5-1.2-26.6-7-47.4-25c-14.3-12.5-25.7-28.1-33.3-45.5
		c-9.8-21.9-14.9-48.1-15.3-77.7c8.8-8,34.6-33.2,39.3-59.6H424.7z M136,112c0-44.2,35.8-80,80-80s80,35.8,80,80s-35.8,80-80,80
		C171.8,191.9,136.1,156.2,136,112z M97.6,262.9C128.4,227.5,170.5,208,216,208c42.8,0,82,16.9,112.1,48H304c-4.4,0-8,3.6-8,8
		c0,21.9-26.8,49.2-37.1,57.9c-1.8,1.5-2.9,3.8-2.9,6.1c0,33.7,5.7,63.4,17,88.4c3.7,8.2,8,16,13.1,23.4c-23,5.3-46.5,8-70,8.1
		c-74.2,0-149.6-35.6-168-44.8C49,348.2,66.5,298.5,97.6,262.9z"/>
	<path class="st0" d="M344,408c0,4.4,3.6,8,8,8h32c4.4,0,8-3.6,8-8v-34.8c11.7-13.3,10.4-33.5-2.8-45.2
		c-13.3-11.7-33.5-10.4-45.2,2.8c-10.7,12.1-10.7,30.2,0,42.3V408z M368,336c8.8,0,16,7.2,16,16c0,4.5-1.9,8.9-5.3,11.9
		c-1.7,1.5-2.7,3.7-2.7,6V400h-16v-30.1c0-2.3-1-4.4-2.7-6c-6.6-5.9-7.1-16-1.3-22.6C359.1,337.9,363.5,336,368,336z"/>
</g>
</svg>
